# xmcd
#
# Track frame offsets:
# 150
# 13764
# 28015
#
# Disc length: 564 seconds
#
# Revision: 1
# Processed by: cddbd v1.5.2PL0 Copyright (c) Steve Scherf et al.
# Submitted via: CedeCatalogueitor 2.6.0.6 http://personales.ya.com/cdcatalogueitor
#
DISCID=1b023203
DTITLE=Young Knives - Love My Name
DYEAR=1900
DGENRE=
TTITLE0=Love My Name
TTITLE1=Love My Name Rmx
TTITLE2=Love My Name Instrumental
EXTD=
EXTT0=
EXTT1=
EXTT2=
PLAYORDER=
